<svg version="1.1" viewBox="0.0 0.0 512.0 512.0" fill="none" stroke="none" stroke-linecap="square" stroke-miterlimit="10" xmlns:xlink="http://www.w3.org/1999/xlink" xmlns="http://www.w3.org/2000/svg"><clipPath id="p.0"><path d="m0 0l512.0 0l0 512.0l-512.0 0l0 -512.0z" clip-rule="nonzero"></path></clipPath><g clip-path="url(#p.0)"><path fill="#000000" fill-opacity="0.0" d="m0 0l512.0 0l0 512.0l-512.0 0z" fill-rule="evenodd"></path><defs><linearGradient id="p.1" gradientUnits="userSpaceOnUse" gradientTransform="matrix(22.62745768093016 0.0 0.0 22.62745768093016 0.0 0.0)" spreadMethod="pad" x1="-1.5049698630483054E-7" y1="-3.1335569654278035E-4" x2="-8.206166781755173E-5" y2="22.62714432508536"><stop offset="0.0" stop-color="#00d2ff"></stop><stop offset="1.0" stop-color="#3a7bd5"></stop></linearGradient></defs><path fill="url(#p.1)" d="m-3.4120735E-6 127.99477l384.0 0l0 384.0l-384.0 0z" fill-rule="evenodd"></path><defs><linearGradient id="p.2" gradientUnits="userSpaceOnUse" gradientTransform="matrix(22.62745768093016 0.0 0.0 22.62745768093016 0.0 0.0)" spreadMethod="pad" x1="-1.5049698630483054E-7" y1="-3.1335569654278035E-4" x2="-8.206166781755173E-5" y2="22.62714432508536"><stop offset="0.0" stop-color="#00d2ff"></stop><stop offset="1.0" stop-color="#3a7bd5"></stop></linearGradient></defs><path fill="url(#p.2)" d="m384.0 127.99477l128.0 -128.0l0 384.0l-128.0 128.0z" fill-rule="evenodd"></path><defs><linearGradient id="p.3" gradientUnits="userSpaceOnUse" gradientTransform="matrix(22.62745768093016 0.0 0.0 22.62745768093016 0.0 0.0)" spreadMethod="pad" x1="-1.5049698630483054E-7" y1="-3.1335569654278035E-4" x2="-8.206166781755173E-5" y2="22.62714432508536"><stop offset="0.0" stop-color="#00d2ff"></stop><stop offset="1.0" stop-color="#3a7bd5"></stop></linearGradient></defs><path fill="url(#p.3)" d="m-3.4120735E-6 127.99477l128.0 -128.0l384.0 0l-128.0 128.0z" fill-rule="evenodd"></path><path fill="#000000" fill-opacity="0.0" d="m-3.4120735E-6 127.99477l128.0 -128.0l384.0 0l0 384.0l-128.0 128.0l-384.0 0zm0 0l384.0 0l128.0 -128.0m-128.0 128.0l0 384.0" fill-rule="evenodd"></path><path fill="#000000" fill-opacity="0.2" d="m384.0 127.99477l128.0 -128.0l0 384.0l-128.0 128.0z" fill-rule="evenodd"></path><path fill="#ffffff" fill-opacity="0.2" d="m-3.4120735E-6 127.99477l128.0 -128.0l384.0 0l-128.0 128.0z" fill-rule="evenodd"></path><path xmlns="http://www.w3.org/2000/svg" fill="#ffffff" d="m113.196846 463.99475l0 -260.79688l163.20312 0l0 0l-104.40625 0l0 101.609360l88.8125 0l-88.8125 0l0 109.203125l108.40625 0l0 49.59375l-167.20312 0z" fill-rule="nonzero"/></g></svg>